<svg width="24" height="26" viewBox="0 0 24 26" fill="none" xmlns="http://www.w3.org/2000/svg">
<g id="Frame 72">
<path id="Vector" d="M18.6667 8.5557C18.6667 6.78759 17.9643 5.0919 16.714 3.84166C15.4638 2.59142 13.7681 1.88904 12 1.88904C10.2319 1.88904 8.5362 2.59142 7.28596 3.84166C6.03571 5.0919 5.33333 6.78759 5.33333 8.5557C5.33333 16.3335 2 18.5557 2 18.5557H22C22 18.5557 18.6667 16.3335 18.6667 8.5557Z" stroke="black" stroke-width="2.22222" stroke-linecap="round" stroke-linejoin="round"/>
<path id="Vector_2" d="M13.9219 23.0002C13.7266 23.3369 13.4462 23.6164 13.1088 23.8107C12.7715 24.0051 12.389 24.1073 11.9997 24.1073C11.6104 24.1073 11.2279 24.0051 10.8905 23.8107C10.5532 23.6164 10.2728 23.3369 10.0775 23.0002" stroke="black" stroke-width="2.22222" stroke-linecap="round" stroke-linejoin="round"/>
</g>
</svg>
