<svg width="20" height="20" viewBox="0 0 20 20" fill="none" xmlns="http://www.w3.org/2000/svg">
<g clip-path="url(#clip0_327_3572)">
<path d="M0.679199 18.8987H18.3315" stroke="black" stroke-width="1.35848" stroke-linecap="round" stroke-linejoin="round"/>
<path d="M8.82668 14.1461L4.75305 14.8793L5.43199 10.7514L14.5704 1.64009C14.6968 1.51282 14.8469 1.4118 15.0123 1.34286C15.1778 1.27393 15.3553 1.23843 15.5345 1.23843C15.7138 1.23843 15.8913 1.27393 16.0567 1.34286C16.2222 1.4118 16.3724 1.51282 16.4986 1.64009L17.9379 3.07943C18.0652 3.20567 18.1663 3.35585 18.2352 3.52132C18.3042 3.68679 18.3397 3.86426 18.3397 4.04353C18.3397 4.22278 18.3042 4.40026 18.2352 4.56573C18.1663 4.7312 18.0652 4.88138 17.9379 5.00761L8.82668 14.1461Z" stroke="black" stroke-width="1.35848" stroke-linecap="round" stroke-linejoin="round"/>
</g>
<defs>
<clipPath id="clip0_327_3572">
<rect width="19.0187" height="19.0187" fill="white" transform="translate(0 0.559204)"/>
</clipPath>
</defs>
</svg>
