<svg width="31" height="31" viewBox="0 0 31 31" fill="none" xmlns="http://www.w3.org/2000/svg">
<path fill-rule="evenodd" clip-rule="evenodd" d="M24.3835 10.8765L23.4982 9.34619L21.8921 9.99119L20.5515 10.535L19.4006 9.64972C18.9073 9.27031 18.3888 8.96678 17.845 8.75178L16.5044 8.20796L16.3021 6.77884L16.0618 5.05884H14.2912L14.0509 6.76619L13.8485 8.19531L12.5079 8.75178C11.9894 8.96678 11.4709 9.27031 10.9271 9.67501L9.78882 10.535L8.46088 10.0038L6.8547 9.34619L5.96941 10.8765L7.33529 11.9388L8.46088 12.8241L8.28382 14.2533C8.24588 14.6327 8.22058 14.9235 8.22058 15.1765C8.22058 15.4294 8.24588 15.7203 8.28382 16.0997L8.46088 17.5288L7.33529 18.4141L5.96941 19.4765L6.8547 21.0068L8.46088 20.3618L9.80147 19.818L10.9523 20.7032C11.4456 21.0827 11.9641 21.3862 12.5079 21.6012L13.8485 22.145L14.0509 23.5741L14.2912 25.2941H16.0491L16.2894 23.5868L16.4918 22.1577L17.8323 21.6138C18.3509 21.3988 18.8694 21.0953 19.4132 20.6906L20.5515 19.8306L21.8668 20.3618L23.4729 21.0068L24.3582 19.4765L22.9923 18.4141L21.8668 17.5288L22.0438 16.0997C22.0944 15.7077 22.1071 15.4421 22.1071 15.1765C22.1071 14.9109 22.0818 14.6327 22.0438 14.2533L21.8668 12.8241L22.9923 11.9388L24.3835 10.8765ZM15.1765 20.2353C12.3815 20.2353 10.1176 17.9715 10.1176 15.1765C10.1176 12.3815 12.3815 10.1176 15.1765 10.1176C17.9715 10.1176 20.2353 12.3815 20.2353 15.1765C20.2353 17.9715 17.9715 20.2353 15.1765 20.2353Z" fill="#DFDFDF"/>
<path fill-rule="evenodd" clip-rule="evenodd" d="M24.5732 16.4159C24.6238 16.0112 24.6618 15.6065 24.6618 15.1765C24.6618 14.7465 24.6238 14.3418 24.5732 13.9371L27.2418 11.8503C27.482 11.6606 27.5453 11.3191 27.3935 11.0409L24.8641 6.66501C24.7503 6.46265 24.5353 6.34883 24.3076 6.34883C24.2318 6.34883 24.1559 6.36148 24.0926 6.38677L20.9435 7.65148C20.2859 7.1456 19.5776 6.72824 18.8062 6.41207L18.3256 3.0606C18.2876 2.75707 18.0221 2.52942 17.7059 2.52942H12.6471C12.3309 2.52942 12.0653 2.75707 12.0273 3.0606L11.5468 6.41207C10.7753 6.72824 10.0671 7.15824 9.4094 7.65148L6.26029 6.38677C6.1844 6.36148 6.10852 6.34883 6.03264 6.34883C5.81764 6.34883 5.60264 6.46265 5.48882 6.66501L2.9594 11.0409C2.79499 11.3191 2.87087 11.6606 3.11117 11.8503L5.7797 13.9371C5.72911 14.3418 5.69117 14.7591 5.69117 15.1765C5.69117 15.5938 5.72911 16.0112 5.7797 16.4159L3.11117 18.5027C2.87087 18.6924 2.80764 19.0338 2.9594 19.3121L5.48882 23.6879C5.60264 23.8903 5.81764 24.0041 6.04529 24.0041C6.12117 24.0041 6.19705 23.9915 6.26029 23.9662L9.4094 22.7015C10.0671 23.2074 10.7753 23.6247 11.5468 23.9409L12.0273 27.2924C12.0653 27.5959 12.3309 27.8235 12.6471 27.8235H17.7059C18.0221 27.8235 18.2876 27.5959 18.3256 27.2924L18.8062 23.9409C19.5776 23.6247 20.2859 23.1947 20.9435 22.7015L24.0926 23.9662C24.1685 23.9915 24.2444 24.0041 24.3203 24.0041C24.5353 24.0041 24.7503 23.8903 24.8641 23.6879L27.3935 19.3121C27.5453 19.0338 27.482 18.6924 27.2418 18.5027L24.5732 16.4159ZM22.0691 14.2534C22.1197 14.6454 22.1324 14.911 22.1324 15.1766C22.1324 15.4422 22.1071 15.7204 22.0691 16.0998L21.8921 17.5289L23.0177 18.4142L24.3835 19.4766L23.4983 21.0069L21.8921 20.3619L20.5768 19.8307L19.4385 20.6907C18.8947 21.0954 18.3762 21.3989 17.8577 21.6139L16.5171 22.1578L16.3147 23.5869L16.0618 25.2942H14.2912L14.0509 23.5869L13.8485 22.1578L12.508 21.6139C11.9641 21.3863 11.4583 21.0954 10.9524 20.716L9.80149 19.8307L8.4609 20.3745L6.85472 21.0195L5.96943 19.4892L7.33531 18.4269L8.4609 17.5416L8.28384 16.1125C8.2459 15.7204 8.2206 15.4295 8.2206 15.1766C8.2206 14.9237 8.2459 14.6328 8.28384 14.2534L8.4609 12.8242L7.33531 11.9389L5.96943 10.8766L6.85472 9.3463L8.4609 9.9913L9.77619 10.5225L10.9144 9.66248C11.4583 9.25777 11.9768 8.95424 12.4953 8.73924L13.8359 8.19542L14.0383 6.7663L14.2912 5.05895H16.0491L16.2894 6.7663L16.4918 8.19542L17.8324 8.73924C18.3762 8.96689 18.8821 9.25777 19.388 9.63718L20.5388 10.5225L21.8794 9.97865L23.4856 9.33365L24.3709 10.8639L23.0177 11.9389L21.8921 12.8242L22.0691 14.2534ZM15.1765 10.1178C12.3815 10.1178 10.1177 12.3816 10.1177 15.1766C10.1177 17.9716 12.3815 20.2354 15.1765 20.2354C17.9715 20.2354 20.2353 17.9716 20.2353 15.1766C20.2353 12.3816 17.9715 10.1178 15.1765 10.1178ZM15.1765 17.706C13.7853 17.706 12.6471 16.5678 12.6471 15.1766C12.6471 13.7854 13.7853 12.6472 15.1765 12.6472C16.5677 12.6472 17.7059 13.7854 17.7059 15.1766C17.7059 16.5678 16.5677 17.706 15.1765 17.706Z" fill="#6C757D"/>
</svg>
