<svg width="20" height="18" viewBox="0 0 20 18" fill="none" xmlns="http://www.w3.org/2000/svg">
<g opacity="0.5">
<path d="M4.48322 13.113H3.65548C3.21642 13.113 2.79534 12.9386 2.48488 12.6281C2.17442 12.3177 2 11.8966 2 11.4575V3.18014C2 2.74108 2.17442 2.32 2.48488 2.00954C2.79534 1.69907 3.21642 1.52466 3.65548 1.52466H16.8993C17.3384 1.52466 17.7595 1.69907 18.0699 2.00954C18.3804 2.32 18.5548 2.74108 18.5548 3.18014V11.4575C18.5548 11.8966 18.3804 12.3177 18.0699 12.6281C17.7595 12.9386 17.3384 13.113 16.8993 13.113H16.0716" stroke="white" stroke-width="2.06935" stroke-linecap="round" stroke-linejoin="round"/>
<path d="M10.2771 11.4573L14.4158 16.4237H6.13843L10.2771 11.4573Z" stroke="white" stroke-width="2.06935" stroke-linecap="round" stroke-linejoin="round"/>
</g>
</svg>
