<svg width="18" height="21" viewBox="0 0 18 21" fill="none" xmlns="http://www.w3.org/2000/svg">
<g opacity="0.5">
<path d="M11.0534 1.58496H3.81068C3.33046 1.58496 2.8699 1.77573 2.53034 2.1153C2.19077 2.45487 2 2.91542 2 3.39564V17.8811C2 18.3613 2.19077 18.8219 2.53034 19.1614C2.8699 19.501 3.33046 19.6918 3.81068 19.6918H14.6748C15.155 19.6918 15.6155 19.501 15.9551 19.1614C16.2947 18.8219 16.4855 18.3613 16.4855 17.8811V7.01701L11.0534 1.58496Z" stroke="white" stroke-width="2.06935" stroke-linecap="round" stroke-linejoin="round"/>
<path d="M11.0532 1.58496V7.01701H16.4853" stroke="white" stroke-width="2.06935" stroke-linecap="round" stroke-linejoin="round"/>
<path d="M12.8636 11.5435H5.62085" stroke="white" stroke-width="2.06935" stroke-linecap="round" stroke-linejoin="round"/>
<path d="M12.8636 15.1653H5.62085" stroke="white" stroke-width="2.06935" stroke-linecap="round" stroke-linejoin="round"/>
<path d="M7.43153 7.92261H6.52619H5.62085" stroke="white" stroke-width="2.06935" stroke-linecap="round" stroke-linejoin="round"/>
</g>
</svg>
