<svg width="20" height="18" viewBox="0 0 20 18" fill="none" xmlns="http://www.w3.org/2000/svg">
<path d="M3.65548 1.25537H16.8993C17.3384 1.25537 17.7595 1.42979 18.0699 1.74025C18.3804 2.05071 18.5548 2.47179 18.5548 2.91085V7.87729C18.5548 10.0726 17.6827 12.178 16.1304 13.7303C14.5781 15.2826 12.4727 16.1547 10.2774 16.1547C9.1904 16.1547 8.11404 15.9406 7.10978 15.5246C6.10552 15.1086 5.19302 14.4989 4.42439 13.7303C2.87208 12.178 2 10.0726 2 7.87729V2.91085C2 2.47179 2.17442 2.05071 2.48488 1.74025C2.79534 1.42979 3.21642 1.25537 3.65548 1.25537V1.25537Z" stroke="white" stroke-width="2.06935" stroke-linecap="round" stroke-linejoin="round"/>
<path d="M6.96631 7.04956L10.2773 10.3605L13.5882 7.04956" stroke="white" stroke-width="2.06935" stroke-linecap="round" stroke-linejoin="round"/>
</svg>
