<svg width="20" height="20" viewBox="0 0 20 20" fill="none" xmlns="http://www.w3.org/2000/svg">
<path d="M10.278 12.0015C11.5247 12.0015 12.5355 10.9908 12.5355 9.74405C12.5355 8.49728 11.5247 7.48657 10.278 7.48657C9.03121 7.48657 8.02051 8.49728 8.02051 9.74405C8.02051 10.9908 9.03121 12.0015 10.278 12.0015Z" stroke="white" stroke-width="2.06935" stroke-linecap="round" stroke-linejoin="round"/>
<path d="M15.8461 12.0012C15.7459 12.2281 15.716 12.4799 15.7603 12.724C15.8046 12.9681 15.9209 13.1934 16.0944 13.3707L16.1396 13.4159C16.2795 13.5556 16.3905 13.7216 16.4662 13.9043C16.542 14.087 16.5809 14.2829 16.5809 14.4806C16.5809 14.6784 16.542 14.8743 16.4662 15.057C16.3905 15.2397 16.2795 15.4056 16.1396 15.5454C15.9998 15.6853 15.8338 15.7963 15.6511 15.8721C15.4684 15.9478 15.2726 15.9868 15.0748 15.9868C14.877 15.9868 14.6812 15.9478 14.4985 15.8721C14.3158 15.7963 14.1498 15.6853 14.01 15.5454L13.9649 15.5003C13.7875 15.3268 13.5623 15.2104 13.3182 15.1662C13.074 15.1219 12.8223 15.1518 12.5953 15.2519C12.3728 15.3473 12.1829 15.5057 12.0492 15.7076C11.9155 15.9095 11.8438 16.1461 11.8428 16.3882V16.5161C11.8428 16.9153 11.6843 17.2981 11.402 17.5803C11.1198 17.8626 10.737 18.0211 10.3378 18.0211C9.9387 18.0211 9.5559 17.8626 9.27366 17.5803C8.99142 17.2981 8.83286 16.9153 8.83286 16.5161V16.4484C8.82704 16.1993 8.74642 15.9578 8.60148 15.7551C8.45654 15.5525 8.254 15.3981 8.02017 15.3121C7.79321 15.212 7.54144 15.1821 7.29734 15.2264C7.05323 15.2706 6.82798 15.387 6.65064 15.5605L6.60549 15.6056C6.46572 15.7455 6.29973 15.8565 6.11703 15.9323C5.93433 16.008 5.73849 16.047 5.54071 16.047C5.34294 16.047 5.1471 16.008 4.9644 15.9323C4.78169 15.8565 4.61571 15.7455 4.47594 15.6056C4.33601 15.4658 4.22501 15.2999 4.14927 15.1172C4.07353 14.9345 4.03455 14.7386 4.03455 14.5408C4.03455 14.3431 4.07353 14.1472 4.14927 13.9645C4.22501 13.7818 4.33601 13.6158 4.47594 13.4761L4.52109 13.4309C4.69457 13.2536 4.81094 13.0283 4.8552 12.7842C4.89946 12.5401 4.86958 12.2883 4.76941 12.0614C4.67402 11.8388 4.51564 11.649 4.31375 11.5153C4.11187 11.3816 3.87529 11.3099 3.63315 11.3089H3.50523C3.10608 11.3089 2.72328 11.1503 2.44104 10.8681C2.1588 10.5859 2.00024 10.2031 2.00024 9.80391C2.00024 9.40476 2.1588 9.02196 2.44104 8.73973C2.72328 8.45749 3.10608 8.29893 3.50523 8.29893H3.57295C3.82202 8.2931 4.06358 8.21248 4.26622 8.06754C4.46886 7.92261 4.62321 7.72006 4.70921 7.48624C4.80938 7.25927 4.83926 7.00751 4.795 6.7634C4.75074 6.5193 4.63437 6.29405 4.46089 6.1167L4.41574 6.07155C4.27581 5.93178 4.16481 5.7658 4.08907 5.5831C4.01333 5.4004 3.97435 5.20456 3.97435 5.00678C3.97435 4.809 4.01333 4.61316 4.08907 4.43046C4.16481 4.24776 4.27581 4.08178 4.41574 3.942C4.55551 3.80208 4.72149 3.69107 4.9042 3.61533C5.0869 3.5396 5.28274 3.50061 5.48052 3.50061C5.67829 3.50061 5.87413 3.5396 6.05683 3.61533C6.23954 3.69107 6.40552 3.80208 6.54529 3.942L6.59044 3.98715C6.76779 4.16063 6.99303 4.277 7.23714 4.32126C7.48124 4.36552 7.73301 4.33564 7.95997 4.23548H8.02017C8.24274 4.14009 8.43255 3.9817 8.56625 3.77982C8.69995 3.57793 8.7717 3.34136 8.77266 3.09921V2.97129C8.77266 2.57214 8.93122 2.18935 9.21346 1.90711C9.4957 1.62487 9.8785 1.46631 10.2776 1.46631C10.6768 1.46631 11.0596 1.62487 11.3418 1.90711C11.6241 2.18935 11.7826 2.57214 11.7826 2.97129V3.03901C11.7836 3.28116 11.8553 3.51773 11.989 3.71962C12.1227 3.9215 12.3126 4.07989 12.5351 4.17528C12.7621 4.27544 13.0138 4.30532 13.258 4.26106C13.5021 4.2168 13.7273 4.10043 13.9047 3.92695L13.9498 3.8818C14.0896 3.74188 14.2556 3.63087 14.4383 3.55513C14.621 3.4794 14.8168 3.44041 15.0146 3.44041C15.2124 3.44041 15.4082 3.4794 15.5909 3.55513C15.7736 3.63087 15.9396 3.74188 16.0794 3.8818C16.2193 4.02158 16.3303 4.18756 16.406 4.37026C16.4818 4.55296 16.5207 4.7488 16.5207 4.94658C16.5207 5.14436 16.4818 5.3402 16.406 5.5229C16.3303 5.7056 16.2193 5.87158 16.0794 6.01135L16.0342 6.0565C15.8607 6.23385 15.7444 6.4591 15.7001 6.7032C15.6558 6.94731 15.6857 7.19907 15.7859 7.42604V7.48624C15.8813 7.7088 16.0397 7.89861 16.2415 8.03231C16.4434 8.16601 16.68 8.23776 16.9221 8.23873H17.0501C17.4492 8.23873 17.832 8.39729 18.1142 8.67953C18.3965 8.96177 18.555 9.34456 18.555 9.74371C18.555 10.1429 18.3965 10.5257 18.1142 10.8079C17.832 11.0901 17.4492 11.2487 17.0501 11.2487H16.9823C16.7402 11.2497 16.5036 11.3214 16.3017 11.4551C16.0999 11.5888 15.9415 11.7786 15.8461 12.0012V12.0012Z" stroke="white" stroke-width="2.06935" stroke-linecap="round" stroke-linejoin="round"/>
</svg>
