<svg width="54" height="54" viewBox="0 0 54 54" fill="none" xmlns="http://www.w3.org/2000/svg">
<g id="gallery-add">
<path id="Vector (Stroke)" fill-rule="evenodd" clip-rule="evenodd" d="M15.2071 12.141C16.2947 11.4143 17.5734 11.0264 18.8815 11.0264C19.7213 11.0264 20.4021 11.7072 20.4021 12.547C20.4021 13.3868 19.7213 14.0676 18.8815 14.0676C18.1749 14.0676 17.4842 14.2771 16.8967 14.6696C16.3093 15.0622 15.8514 15.6201 15.581 16.2729C15.3106 16.9257 15.2398 17.644 15.3777 18.3369C15.5155 19.0299 15.8558 19.6665 16.3554 20.1661C16.855 20.6657 17.4915 21.0059 18.1845 21.1438C18.8775 21.2816 19.5958 21.2109 20.2486 20.9405C20.9013 20.6701 21.4593 20.2122 21.8518 19.6247C22.2444 19.0372 22.4539 18.3466 22.4539 17.64C22.4539 16.8002 23.1347 16.1194 23.9745 16.1194C24.8143 16.1194 25.4951 16.8002 25.4951 17.64C25.4951 18.9481 25.1072 20.2267 24.3805 21.3143C23.6538 22.4019 22.6209 23.2496 21.4124 23.7502C20.2039 24.2508 18.8741 24.3817 17.5912 24.1266C16.3083 23.8714 15.1298 23.2415 14.2049 22.3165C13.28 21.3916 12.6501 20.2132 12.3949 18.9303C12.1397 17.6473 12.2707 16.3176 12.7713 15.1091C13.2718 13.9006 14.1195 12.8677 15.2071 12.141Z" fill="#8D98AA"/>
<path id="Vector (Stroke)_2" fill-rule="evenodd" clip-rule="evenodd" d="M51.9209 19.8467C52.7486 19.8467 53.4196 20.5316 53.4196 21.3766V34.1871C53.4196 40.7405 52.152 45.7259 48.928 49.0354C45.702 52.347 40.8401 53.6497 34.4517 53.6497H19.4784C13.092 53.6497 8.2302 52.3476 5.0037 49.0363C1.77918 45.7271 0.510498 40.7417 0.510498 34.1871V29.0364C0.510498 28.1914 1.1815 27.5065 2.00923 27.5065C2.83695 27.5065 3.50795 28.1914 3.50795 29.0364V34.1871C3.50795 40.443 4.73715 44.424 7.12886 46.8785C9.5186 49.331 13.3914 50.5899 19.4784 50.5899H34.4517C40.5407 50.5899 44.4134 49.3304 46.8026 46.8778C49.1938 44.4231 50.4221 40.4422 50.4221 34.1871V21.3766C50.4221 20.5316 51.0931 19.8467 51.9209 19.8467Z" fill="#8D98AA"/>
<path id="Vector (Stroke)_3" fill-rule="evenodd" clip-rule="evenodd" d="M5.06607 5.25898C8.33549 2.0153 13.262 0.739258 19.7381 0.739258H29.8627C30.6974 0.739258 31.3741 1.41063 31.3741 2.2388C31.3741 3.06698 30.6974 3.73835 29.8627 3.73835H19.7381C13.5603 3.73835 9.62877 4.97355 7.20358 7.37965C4.77838 9.78576 3.53338 13.6863 3.53338 19.8155C3.53338 20.6436 2.85669 21.315 2.02194 21.315C1.18719 21.315 0.510498 20.6436 0.510498 19.8155C0.510498 13.3904 1.79666 8.50266 5.06607 5.25898Z" fill="#8D98AA"/>
<path id="Vector (Stroke)_4" fill-rule="evenodd" clip-rule="evenodd" d="M34.3135 9.55856C34.3135 8.74687 35.0178 8.08887 35.8867 8.08887H50.3767C51.2455 8.08887 51.9498 8.74687 51.9498 9.55856C51.9498 10.3703 51.2455 11.0283 50.3767 11.0283H35.8867C35.0178 11.0283 34.3135 10.3703 34.3135 9.55856Z" fill="#8D98AA"/>
<path id="Vector (Stroke)_5" fill-rule="evenodd" clip-rule="evenodd" d="M43.1318 0.739258C43.9435 0.739258 44.6015 1.44359 44.6015 2.31243V16.8024C44.6015 17.6713 43.9435 18.3756 43.1318 18.3756C42.3201 18.3756 41.6621 17.6713 41.6621 16.8024V2.31243C41.6621 1.44359 42.3201 0.739258 43.1318 0.739258Z" fill="#8D98AA"/>
<path id="Vector (Stroke)_6" fill-rule="evenodd" clip-rule="evenodd" d="M41.7347 29.656L31.3332 38.66L31.3056 38.6833C30.041 39.7259 28.4544 40.296 26.8168 40.296C25.1793 40.296 23.5926 39.7259 22.3281 38.6833C22.3144 38.6721 22.301 38.6606 22.2878 38.6489L21.4848 37.938C20.8125 37.3955 19.9866 37.0785 19.1241 37.0324C18.2563 36.986 17.3962 37.2163 16.6672 37.6899L4.32739 46.0419C3.63861 46.5081 2.70312 46.3264 2.23793 45.6362C1.77273 44.9459 1.95399 44.0084 2.64277 43.5422L15.0135 35.1694C16.2794 34.342 17.7752 33.9397 19.2844 34.0204C20.7936 34.101 22.2381 34.6606 23.409 35.6183C23.4243 35.6307 23.4392 35.6435 23.4539 35.6565L24.2593 36.3695C24.982 36.9581 25.8851 37.2796 26.8168 37.2796C27.7512 37.2796 28.6567 36.9563 29.3804 36.3646L39.7819 27.3606L39.8096 27.3372C41.0741 26.2946 42.6608 25.7246 44.2983 25.7246C45.9359 25.7246 47.5225 26.2946 48.7871 27.3372L48.8148 27.3606L52.8982 30.8957C53.5272 31.4403 53.5966 32.3926 53.0532 33.0229C52.5099 33.6533 51.5595 33.7228 50.9306 33.1783L46.8619 29.6559C46.1382 29.0643 45.2327 28.7409 44.2983 28.7409C43.364 28.7409 42.4585 29.0643 41.7347 29.656Z" fill="#8D98AA"/>
</g>
</svg>
